<svg version="1.1" xmlns="http://www.w3.org/2000/svg" xmlns:xlink="http://www.w3.org/1999/xlink" width="1156" height="819"><defs/><g><g transform="translate(-62,10) scale(1,1)"><path fill="#C0C0C0" stroke="none" d="M 89 63 L 1205 63 Q 1215 63 1215 73 L 1215 796 Q 1215 806 1205 806 L 89 806 Q 79 806 79 796 L 79 73 Q 79 63 89 63 Z" opacity="0.2"/></g><g transform="translate(-62,10) scale(1,1)"><path fill="#ffffff" stroke="none" d="M 82 56 L 1198 56 Q 1208 56 1208 66 L 1208 789 Q 1208 799 1198 799 L 82 799 Q 72 799 72 789 L 72 66 Q 72 56 82 56 Z"/></g><g transform="translate(-62,10) scale(1,1)"><path fill="none" stroke="#000000" d="M 82 56 L 1198 56 Q 1208 56 1208 66 L 1208 789 Q 1208 799 1198 799 L 82 799 Q 72 799 72 789 L 72 66 Q 72 56 82 56 Z" stroke-miterlimit="10"/></g><g transform="translate(-62,10) scale(1,1)"><g><path fill="none" stroke="none"/><text fill="#000000" stroke="none" font-family="Arial" font-size="13px" font-style="normal" font-weight="bold" text-decoration="none" x="572.5" y="75.5">didOutputSampleBuffer</text></g></g><g transform="translate(-62,10) scale(1,1)"><rect fill="#C0C0C0" stroke="none" x="95" y="7" width="203" height="24" opacity="0.2"/></g><g transform="translate(-62,10) scale(1,1)"><rect fill="#ffffff" stroke="none" x="88" y="0" width="203" height="24"/></g><g transform="translate(-62,10) scale(1,1)"><path fill="none" stroke="#000000" d="M 88 0 L 291 0 L 291 24 L 88 24 L 88 0 Z Z" stroke-miterlimit="10"/></g><g transform="translate(-62,10) scale(1,1)"><rect fill="#ffffff" stroke="none" x="88" y="0" width="203" height="24"/></g><g transform="translate(-62,10) scale(1,1)"><path fill="none" stroke="#000000" d="M 88 0 L 291 0 L 291 24 L 88 24 L 88 0 Z Z" stroke-miterlimit="10"/></g><g transform="translate(-62,10) scale(1,1)"><g><path fill="none" stroke="none"/><text fill="#000000" stroke="none" font-family="Arial" font-size="13px" font-style="normal" font-weight="bold" text-decoration="none" x="97.5" y="19.5">sampleBuffer: CMSampleBuffer</text></g></g><g transform="translate(-62,10) scale(1,1)"><path fill="none" stroke="#000000" d="M 203 25 L 236 55" stroke-miterlimit="10"/></g><g transform="translate(-62,10) scale(1,1)"><path fill="none" stroke="#000000" d="M 225.64860154963412 51.27863598639388 L 236 55 L 231.31185769026683 45.04905423169789" stroke-miterlimit="10"/></g><g transform="translate(-62,10) scale(1,1)"><path fill="#C0C0C0" stroke="none" d="M 417 7 L 474 7 Q 484 7 484 17 L 484 37 Q 484 47 474 47 L 417 47 Q 407 47 407 37 L 407 17 Q 407 7 417 7 Z" opacity="0.2"/></g><g transform="translate(-62,10) scale(1,1)"><path fill="#ffffff" stroke="none" d="M 410 0 L 467 0 Q 477 0 477 10 L 477 30 Q 477 40 467 40 L 410 40 Q 400 40 400 30 L 400 10 Q 400 0 410 0 Z"/></g><g transform="translate(-62,10) scale(1,1)"><path fill="none" stroke="#000000" d="M 410 0 L 467 0 Q 477 0 477 10 L 477 30 Q 477 40 467 40 L 410 40 Q 400 40 400 30 L 400 10 Q 400 0 410 0 Z" stroke-miterlimit="10"/></g><g transform="translate(-62,10) scale(1,1)"><g><path fill="none" stroke="none"/><text fill="#000000" stroke="none" font-family="Arial" font-size="13px" font-style="normal" font-weight="bold" text-decoration="none" x="406" y="19.5">AVSession</text></g></g><g transform="translate(-62,10) scale(1,1)"><path fill="none" stroke="#000000" d="M 448 41 L 455 55" stroke-miterlimit="10"/></g><g transform="translate(-62,10) scale(1,1)"><path fill="none" stroke="#000000" d="M 446.6900064950472 47.792780845038585 L 455 55 L 454.22022077900255 44.027673703060934" stroke-miterlimit="10"/></g><g transform="translate(-62,10) scale(1,1)"><rect fill="#C0C0C0" stroke="none" x="255" y="247" width="90" height="24" opacity="0.2"/></g><g transform="translate(-62,10) scale(1,1)"><rect fill="#ffffff" stroke="none" x="248" y="240" width="90" height="24"/></g><g transform="translate(-62,10) scale(1,1)"><path fill="none" stroke="#000000" d="M 248 240 L 338 240 L 338 264 L 248 264 L 248 240 Z Z" stroke-miterlimit="10"/></g><g transform="translate(-62,10) scale(1,1)"><rect fill="#ffffff" stroke="none" x="248" y="240" width="90" height="24"/></g><g transform="translate(-62,10) scale(1,1)"><path fill="none" stroke="#000000" d="M 248 240 L 338 240 L 338 264 L 248 264 L 248 240 Z Z" stroke-miterlimit="10"/></g><g transform="translate(-62,10) scale(1,1)"><g><path fill="none" stroke="none"/><text fill="#000000" stroke="none" font-family="Arial" font-size="13px" font-style="normal" font-weight="bold" text-decoration="none" x="254" y="259.5">BaseAddress</text></g></g><g transform="translate(-62,10) scale(1,1)"><path fill="none" stroke="#000000" d="M 195 25 L 287 239" stroke-miterlimit="10"/></g><g transform="translate(-62,10) scale(1,1)"><path fill="none" stroke="#000000" d="M 279.1189124199489 231.32611841663137 L 287 239 L 286.8534832346433 228.00097582339828" stroke-miterlimit="10"/></g><g transform="translate(-62,10) scale(1,1)"><g><path fill="none" stroke="none"/><text fill="#000000" stroke="none" font-family="Arial" font-size="13px" font-style="normal" font-weight="normal" text-decoration="none" x="213" y="132.5">LOCK FIRST!</text></g></g><g transform="translate(-62,10) scale(1,1)"><rect fill="#C0C0C0" stroke="none" x="431" y="239" width="88" height="24" opacity="0.2"/></g><g transform="translate(-62,10) scale(1,1)"><rect fill="#ffffff" stroke="none" x="424" y="232" width="88" height="24"/></g><g transform="translate(-62,10) scale(1,1)"><path fill="none" stroke="#000000" d="M 424 232 L 512 232 L 512 256 L 424 256 L 424 232 Z Z" stroke-miterlimit="10"/></g><g transform="translate(-62,10) scale(1,1)"><rect fill="#ffffff" stroke="none" x="424" y="232" width="88" height="24"/></g><g transform="translate(-62,10) scale(1,1)"><path fill="none" stroke="#000000" d="M 424 232 L 512 232 L 512 256 L 424 256 L 424 232 Z Z" stroke-miterlimit="10"/></g><g transform="translate(-62,10) scale(1,1)"><g><path fill="none" stroke="none"/><text fill="#000000" stroke="none" font-family="Arial" font-size="13px" font-style="normal" font-weight="bold" text-decoration="none" x="451.5" y="251.5">Width</text></g></g><g transform="translate(-62,10) scale(1,1)"><path fill="none" stroke="#000000" d="M 205 25 L 452 231" stroke-miterlimit="10"/></g><g transform="translate(-62,10) scale(1,1)"><path fill="none" stroke="#000000" d="M 441.499252756693 227.7236747212493 L 452 231 L 446.8915622387092 221.25813859475417" stroke-miterlimit="10"/></g><g transform="translate(-62,10) scale(1,1)"><rect fill="#C0C0C0" stroke="none" x="431" y="183" width="88" height="24" opacity="0.2"/></g><g transform="translate(-62,10) scale(1,1)"><rect fill="#ffffff" stroke="none" x="424" y="176" width="88" height="24"/></g><g transform="translate(-62,10) scale(1,1)"><path fill="none" stroke="#000000" d="M 424 176 L 512 176 L 512 200 L 424 200 L 424 176 Z Z" stroke-miterlimit="10"/></g><g transform="translate(-62,10) scale(1,1)"><rect fill="#ffffff" stroke="none" x="424" y="176" width="88" height="24"/></g><g transform="translate(-62,10) scale(1,1)"><path fill="none" stroke="#000000" d="M 424 176 L 512 176 L 512 200 L 424 200 L 424 176 Z Z" stroke-miterlimit="10"/></g><g transform="translate(-62,10) scale(1,1)"><g><path fill="none" stroke="none"/><text fill="#000000" stroke="none" font-family="Arial" font-size="13px" font-style="normal" font-weight="bold" text-decoration="none" x="449.5" y="195.5">Height</text></g></g><g transform="translate(-62,10) scale(1,1)"><path fill="none" stroke="#000000" d="M 210 25 L 447 175" stroke-miterlimit="10"/></g><g transform="translate(-62,10) scale(1,1)"><path fill="none" stroke="#000000" d="M 436.16150102671094 173.1219850889805 L 447 175 L 440.6639809568552 166.00806679935252" stroke-miterlimit="10"/></g><g transform="translate(-62,10) scale(1,1)"><path fill="#C0C0C0" stroke="none" d="M 610 175 L 609 175 Q 612 175 612 178 L 612 267 Q 612 270 609 270 L 610 270 Q 607 270 607 267 L 607 178 Q 607 175 610 175 Z" opacity="0.2"/></g><g transform="translate(-62,10) scale(1,1)"><path fill="#000000" stroke="none" d="M 603 168 L 603 168 Q 606 168 606 171 L 606 260 Q 606 263 603 263 L 603 263 Q 600 263 600 260 L 600 171 Q 600 168 603 168 Z"/></g><g transform="translate(-62,10) scale(1,1)"><path fill="none" stroke="#000000" d="M 513 197 L 599 214" stroke-miterlimit="10"/></g><g transform="translate(-62,10) scale(1,1)"><path fill="none" stroke="#000000" d="M 588.213925690538 216.15884251180216 L 599 214 L 589.8465615337883 207.89962589300654" stroke-miterlimit="10"/></g><g transform="translate(-62,10) scale(1,1)"><path fill="none" stroke="#000000" d="M 513 234 L 599 216" stroke-miterlimit="10"/></g><g transform="translate(-62,10) scale(1,1)"><path fill="none" stroke="#000000" d="M 589.9152442066974 222.20219414208023 L 599 216 L 588.1904940370315 213.96172110923234" stroke-miterlimit="10"/></g><g transform="translate(-62,10) scale(1,1)"><rect fill="#C0C0C0" stroke="none" x="743" y="207" width="119" height="31" opacity="0.2"/></g><g transform="translate(-62,10) scale(1,1)"><rect fill="#ffffff" stroke="none" x="736" y="200" width="119" height="31"/></g><g transform="translate(-62,10) scale(1,1)"><path fill="none" stroke="#000000" d="M 736 200 L 855 200 L 855 231 L 736 231 L 736 200 Z Z" stroke-miterlimit="10"/></g><g transform="translate(-62,10) scale(1,1)"><rect fill="#ffffff" stroke="none" x="736" y="200" width="119" height="31"/></g><g transform="translate(-62,10) scale(1,1)"><path fill="none" stroke="#000000" d="M 736 200 L 855 200 L 855 231 L 736 231 L 736 200 Z Z" stroke-miterlimit="10"/></g><g transform="translate(-62,10) scale(1,1)"><g><path fill="none" stroke="none"/><text fill="#000000" stroke="none" font-family="Arial" font-size="13px" font-style="normal" font-weight="bold" text-decoration="none" x="745.5" y="219.5">scanningProvider</text></g></g><g transform="translate(-62,10) scale(1,1)"><path fill="none" stroke="#000000" d="M 606 215 L 735 215" stroke-miterlimit="10"/></g><g transform="translate(-62,10) scale(1,1)"><path fill="none" stroke="#000000" d="M 724.8373251423759 219.209517756016 L 735 215 L 724.8373251423758 210.790482243984" stroke-miterlimit="10"/></g><g transform="translate(-62,10) scale(1,1)"><g><path fill="none" stroke="none"/><text fill="#000000" stroke="none" font-family="Arial" font-size="13px" font-style="normal" font-weight="normal" text-decoration="none" x="627.5" y="206.5">updateParams</text></g></g><g transform="translate(-62,10) scale(1,1)"><path fill="#C0C0C0" stroke="none" d="M 393 383 L 524 383 Q 534 383 534 393 L 534 428 Q 534 438 524 438 L 393 438 Q 383 438 383 428 L 383 393 Q 383 383 393 383 Z" opacity="0.2"/></g><g transform="translate(-62,10) scale(1,1)"><path fill="#ffffff" stroke="none" d="M 386 376 L 517 376 Q 527 376 527 386 L 527 421 Q 527 431 517 431 L 386 431 Q 376 431 376 421 L 376 386 Q 376 376 386 376 Z"/></g><g transform="translate(-62,10) scale(1,1)"><path fill="none" stroke="#000000" d="M 386 376 L 517 376 Q 527 376 527 386 L 527 421 Q 527 431 517 431 L 386 431 Q 376 431 376 421 L 376 386 Q 376 376 386 376 Z" stroke-miterlimit="10"/></g><g transform="translate(-62,10) scale(1,1)"><g><path fill="none" stroke="none"/><text fill="#000000" stroke="none" font-family="Arial" font-size="13px" font-style="normal" font-weight="bold" text-decoration="none" x="407.5" y="395.5">Copy To Buffer</text></g></g><g transform="translate(-62,10) scale(1,1)"><path fill="none" stroke="#000000" d="M 307 265 L 422 375" stroke-miterlimit="10"/></g><g transform="translate(-62,10) scale(1,1)"><path fill="none" stroke="#000000" d="M 411.74631176573826 371.01730272371066 L 422 375 L 417.56573976885824 364.9333552659034" stroke-miterlimit="10"/></g><g transform="translate(-62,10) scale(1,1)"><g><path fill="none" stroke="none"/><text fill="#000000" stroke="none" font-family="Arial" font-size="13px" font-style="normal" font-weight="normal" text-decoration="none" x="318.5" y="315.5">make sure not null!</text></g></g><g transform="translate(-62,10) scale(1,1)"><rect fill="#C0C0C0" stroke="none" x="783" y="295" width="169" height="31" opacity="0.2"/></g><g transform="translate(-62,10) scale(1,1)"><rect fill="#ffffff" stroke="none" x="776" y="288" width="169" height="31"/></g><g transform="translate(-62,10) scale(1,1)"><path fill="none" stroke="#000000" d="M 776 288 L 945 288 L 945 319 L 776 319 L 776 288 Z Z" stroke-miterlimit="10"/></g><g transform="translate(-62,10) scale(1,1)"><rect fill="#ffffff" stroke="none" x="776" y="288" width="169" height="31"/></g><g transform="translate(-62,10) scale(1,1)"><path fill="none" stroke="#000000" d="M 776 288 L 945 288 L 945 319 L 776 319 L 776 288 Z Z" stroke-miterlimit="10"/></g><g transform="translate(-62,10) scale(1,1)"><g><path fill="none" stroke="none"/><text fill="#000000" stroke="none" font-family="Arial" font-size="13px" font-style="normal" font-weight="bold" text-decoration="none" x="787" y="307.5">OwningScanningManager</text></g></g><g transform="translate(-62,10) scale(1,1)"><path fill="none" stroke="#000000" d="M 808 232 L 848 287" stroke-miterlimit="10"/></g><g transform="translate(-62,10) scale(1,1)"><path fill="none" stroke="#000000" d="M 838.6182133692665 281.25699733454775 L 848 287 L 845.4269911828768 276.3051589246494" stroke-miterlimit="10"/></g><g transform="translate(-62,10) scale(1,1)"><g><path fill="none" stroke="none"/><text fill="#000000" stroke="none" font-family="Arial" font-size="13px" font-style="normal" font-weight="normal" text-decoration="none" x="830.5" y="256.5">get</text></g></g><g transform="translate(-62,10) scale(1,1)"><path fill="none" stroke="#000000" d="M 790 320 L 528 384" stroke-miterlimit="10"/></g><g transform="translate(-62,10) scale(1,1)"><path fill="none" stroke="#000000" d="M 536.8734900101742 377.49914043842364 L 528 384 L 538.8713068385173 385.67770307945324" stroke-miterlimit="10"/></g><g transform="translate(-62,10) scale(1,1)"><g><path fill="none" stroke="none"/><text fill="#000000" stroke="none" font-family="Arial" font-size="13px" font-style="normal" font-weight="normal" text-decoration="none" x="518.5" y="372.5">get currentFrame make sure to lock that address!</text></g></g><g transform="translate(-62,10) scale(1,1)"><rect fill="#C0C0C0" stroke="none" x="335" y="543" width="159" height="39" opacity="0.2"/></g><g transform="translate(-62,10) scale(1,1)"><rect fill="#ffffff" stroke="none" x="328" y="536" width="159" height="39"/></g><g transform="translate(-62,10) scale(1,1)"><path fill="none" stroke="#000000" d="M 328 536 L 487 536 L 487 575 L 328 575 L 328 536 Z Z" stroke-miterlimit="10"/></g><g transform="translate(-62,10) scale(1,1)"><rect fill="#ffffff" stroke="none" x="328" y="536" width="159" height="39"/></g><g transform="translate(-62,10) scale(1,1)"><path fill="none" stroke="#000000" d="M 328 536 L 487 536 L 487 575 L 328 575 L 328 536 Z Z" stroke-miterlimit="10"/></g><g transform="translate(-62,10) scale(1,1)"><g><path fill="none" stroke="none"/><text fill="#000000" stroke="none" font-family="Arial" font-size="13px" font-style="normal" font-weight="bold" text-decoration="none" x="352" y="555.5">myImage: CIImage</text></g></g><g transform="translate(-62,10) scale(1,1)"><path fill="none" stroke="#000000" d="M 298 265 L 399 535" stroke-miterlimit="10"/></g><g transform="translate(-62,10) scale(1,1)"><path fill="none" stroke="#000000" d="M 391.49668143660995 526.9563558919923 L 399 535 L 399.38206785664744 524.0066372682005" stroke-miterlimit="10"/></g><g transform="translate(-62,10) scale(1,1)"><path fill="#C0C0C0" stroke="none" d="M 617 535 L 748 535 Q 758 535 758 545 L 758 580 Q 758 590 748 590 L 617 590 Q 607 590 607 580 L 607 545 Q 607 535 617 535 Z" opacity="0.2"/></g><g transform="translate(-62,10) scale(1,1)"><path fill="#ffffff" stroke="none" d="M 610 528 L 741 528 Q 751 528 751 538 L 751 573 Q 751 583 741 583 L 610 583 Q 600 583 600 573 L 600 538 Q 600 528 610 528 Z"/></g><g transform="translate(-62,10) scale(1,1)"><path fill="none" stroke="#000000" d="M 610 528 L 741 528 Q 751 528 751 538 L 751 573 Q 751 583 741 583 L 610 583 Q 600 583 600 573 L 600 538 Q 600 528 610 528 Z" stroke-miterlimit="10"/></g><g transform="translate(-62,10) scale(1,1)"><g><path fill="none" stroke="none"/><text fill="#000000" stroke="none" font-family="Arial" font-size="13px" font-style="normal" font-weight="bold" text-decoration="none" x="610" y="547.5">Run Canny Edge Filter</text></g></g><g transform="translate(-62,10) scale(1,1)"><path fill="none" stroke="#000000" d="M 488 555 L 599 555" stroke-miterlimit="10"/></g><g transform="translate(-62,10) scale(1,1)"><path fill="none" stroke="#000000" d="M 588.8373251423759 559.209517756016 L 599 555 L 588.8373251423758 550.790482243984" stroke-miterlimit="10"/></g><g transform="translate(-62,10) scale(1,1)"><path fill="#C0C0C0" stroke="none" d="M 833 535 L 948 535 Q 958 535 958 545 L 958 580 Q 958 590 948 590 L 833 590 Q 823 590 823 580 L 823 545 Q 823 535 833 535 Z" opacity="0.2"/></g><g transform="translate(-62,10) scale(1,1)"><path fill="#ffffff" stroke="none" d="M 826 528 L 941 528 Q 951 528 951 538 L 951 573 Q 951 583 941 583 L 826 583 Q 816 583 816 573 L 816 538 Q 816 528 826 528 Z"/></g><g transform="translate(-62,10) scale(1,1)"><path fill="none" stroke="#000000" d="M 826 528 L 941 528 Q 951 528 951 538 L 951 573 Q 951 583 941 583 L 826 583 Q 816 583 816 573 L 816 538 Q 816 528 826 528 Z" stroke-miterlimit="10"/></g><g transform="translate(-62,10) scale(1,1)"><g><path fill="none" stroke="none"/><text fill="#000000" stroke="none" font-family="Arial" font-size="13px" font-style="normal" font-weight="bold" text-decoration="none" x="841.5" y="547.5">Copy to Buffer</text></g></g><g transform="translate(-62,10) scale(1,1)"><path fill="none" stroke="#000000" d="M 752 555 L 815 555" stroke-miterlimit="10"/></g><g transform="translate(-62,10) scale(1,1)"><path fill="none" stroke="#000000" d="M 804.8373251423759 559.209517756016 L 815 555 L 804.8373251423758 550.790482243984" stroke-miterlimit="10"/></g><g transform="translate(-62,10) scale(1,1)"><path fill="none" stroke="#000000" d="M 862 320 L 880 527" stroke-miterlimit="10"/></g><g transform="translate(-62,10) scale(1,1)"><path fill="none" stroke="#000000" d="M 874.9259189305699 517.2401997304837 L 880 527 L 883.313303821117 516.5108619139144" stroke-miterlimit="10"/></g><g transform="translate(-62,10) scale(1,1)"><g><path fill="none" stroke="none"/><text fill="#000000" stroke="none" font-family="Arial" font-size="13px" font-style="normal" font-weight="normal" text-decoration="none" x="741.5" y="427.5">get currentCanny make sure to lock that address!</text></g></g></g></svg>