<svg version="1.1" xmlns="http://www.w3.org/2000/svg" xmlns:xlink="http://www.w3.org/1999/xlink" width="2212" height="1356"><defs/><g><g transform="translate(-566,-238) scale(1,1)"><rect fill="#C0C0C0" stroke="none" x="583" y="255" width="876.8" height="15" opacity="0.2"/></g><g transform="translate(-566,-238) scale(1,1)"><rect fill="#C0C0C0" stroke="none" x="583" y="269" width="2192" height="1322" opacity="0.2"/></g><g transform="translate(-566,-238) scale(1,1)"><rect fill="#ffffff" stroke="none" x="576" y="263" width="2192" height="1321"/></g><g transform="translate(-566,-238) scale(1,1)"><path fill="none" stroke="#000000" d="M 576 263 L 2768 263 L 2768 1584 L 576 1584 L 576 263 Z Z" stroke-miterlimit="10"/></g><g transform="translate(-566,-238) scale(1,1)"><rect fill="#ffffff" stroke="none" x="576" y="248" width="876.8" height="15"/></g><g transform="translate(-566,-238) scale(1,1)"><path fill="none" stroke="#000000" d="M 576 248 L 1452.8 248 L 1452.8 263 L 576 263 L 576 248 Z Z" stroke-miterlimit="10"/></g><g transform="translate(-566,-238) scale(1,1)"><rect fill="#ffffff" stroke="none" x="576" y="262" width="2192" height="1322"/></g><g transform="translate(-566,-238) scale(1,1)"><path fill="none" stroke="#000000" d="M 576 262 L 2768 262 L 2768 1584 L 576 1584 L 576 262 Z Z" stroke-miterlimit="10"/></g><g transform="translate(-566,-238) scale(1,1)"><g><path fill="none" stroke="none"/><text fill="#000000" stroke="none" font-family="Arial" font-size="13px" font-style="normal" font-weight="bold" text-decoration="none" x="1624" y="282.5">Virtual Wardrobe</text></g></g><g transform="translate(-566,-238) scale(1,1)"><rect fill="#C0C0C0" stroke="none" x="623" y="295" width="284.79999999999995" height="15" opacity="0.2"/></g><g transform="translate(-566,-238) scale(1,1)"><rect fill="#C0C0C0" stroke="none" x="623" y="309" width="712" height="618" opacity="0.2"/></g><g transform="translate(-566,-238) scale(1,1)"><rect fill="#ffffff" stroke="none" x="616" y="303" width="712" height="617"/></g><g transform="translate(-566,-238) scale(1,1)"><path fill="none" stroke="#000000" d="M 616 303 L 1328 303 L 1328 920 L 616 920 L 616 303 Z Z" stroke-miterlimit="10"/></g><g transform="translate(-566,-238) scale(1,1)"><rect fill="#ffffff" stroke="none" x="616" y="288" width="284.79999999999995" height="15"/></g><g transform="translate(-566,-238) scale(1,1)"><path fill="none" stroke="#000000" d="M 616 288 L 900.8 288 L 900.8 303 L 616 303 L 616 288 Z Z" stroke-miterlimit="10"/></g><g transform="translate(-566,-238) scale(1,1)"><rect fill="#ffffff" stroke="none" x="616" y="302" width="712" height="618"/></g><g transform="translate(-566,-238) scale(1,1)"><path fill="none" stroke="#000000" d="M 616 302 L 1328 302 L 1328 920 L 616 920 L 616 302 Z Z" stroke-miterlimit="10"/></g><g transform="translate(-566,-238) scale(1,1)"><path fill="none" stroke="#000000" d="M 891.8 291 L 885.8 298 L 897.8 298 L 891.8 291" stroke-miterlimit="10"/></g><g transform="translate(-566,-238) scale(1,1)"><g><path fill="none" stroke="none"/><text fill="#000000" stroke="none" font-family="Arial" font-size="13px" font-style="normal" font-weight="bold" text-decoration="none" x="915.5" y="322.5">Scanning Providers</text></g></g><g transform="translate(-566,-238) scale(1,1)"><path fill="#C0C0C0" stroke="none" d="M 779 338.5 C 779 332.1487248 784.1487248 327 790.5 327 C 796.8512752 327 802 332.1487248 802 338.5 C 802 344.8512752 796.8512752 350 790.5 350 C 784.1487248 350 779 344.8512752 779 338.5 Z" opacity="0.2"/></g><g transform="translate(-566,-238) scale(1,1)"><path fill="#ffffff" stroke="none" d="M 772 331.5 C 772 325.1487248 777.1487248 320 783.5 320 C 789.8512752 320 795 325.1487248 795 331.5 C 795 337.8512752 789.8512752 343 783.5 343 C 777.1487248 343 772 337.8512752 772 331.5 Z"/></g><g transform="translate(-566,-238) scale(1,1)"><path fill="none" stroke="#000000" d="M 772 331.5 C 772 325.1487248 777.1487248 320 783.5 320 C 789.8512752 320 795 325.1487248 795 331.5 C 795 337.8512752 789.8512752 343 783.5 343 C 777.1487248 343 772 337.8512752 772 331.5 Z" stroke-miterlimit="10"/></g><g transform="translate(-566,-238) scale(1,1)"><path fill="none" stroke="#000000" d="M 640 368 L 927 368" stroke-miterlimit="10"/></g><g transform="translate(-566,-238) scale(1,1)"><path fill="none" stroke="#000000" d="M 640 436 L 927 436" stroke-miterlimit="10"/></g><g transform="translate(-566,-238) scale(1,1)"><g><path fill="none" stroke="none"/><text fill="#000000" stroke="none" font-family="Arial" font-size="13px" font-style="normal" font-weight="bold" text-decoration="none" x="732.5" y="362.5">IProvideScanning</text></g></g><g transform="translate(-566,-238) scale(1,1)"><g><path fill="none" stroke="none"/><text fill="#000000" stroke="none" font-family="Arial" font-size="13px" font-style="normal" font-weight="normal" text-decoration="none" x="645" y="385.5">+Width: int32</text></g></g><g transform="translate(-566,-238) scale(1,1)"><g><path fill="none" stroke="none"/><text fill="#000000" stroke="none" font-family="Arial" font-size="13px" font-style="normal" font-weight="normal" text-decoration="none" x="645" y="400.5">+Height: int32</text></g></g><g transform="translate(-566,-238) scale(1,1)"><g><path fill="none" stroke="none"/><text fill="#000000" stroke="none" font-family="Arial" font-size="13px" font-style="normal" font-weight="normal" text-decoration="none" x="645" y="415.5">+bReturnsCanny: bool</text></g></g><g transform="translate(-566,-238) scale(1,1)"><g><path fill="none" stroke="none"/><text fill="#000000" stroke="none" font-family="Arial" font-size="13px" font-style="normal" font-weight="normal" text-decoration="none" x="645" y="430.5">+OwningScanningManager: ScanningManager</text></g></g><g transform="translate(-566,-238) scale(1,1)"><g><path fill="none" stroke="none"/><text fill="#000000" stroke="none" font-family="Arial" font-size="13px" font-style="normal" font-weight="normal" text-decoration="none" x="645" y="453.5">+StartScanning()</text></g></g><g transform="translate(-566,-238) scale(1,1)"><g><path fill="none" stroke="none"/><text fill="#000000" stroke="none" font-family="Arial" font-size="13px" font-style="normal" font-weight="normal" text-decoration="none" x="645" y="468.5">+StopScanning()</text></g></g><g transform="translate(-566,-238) scale(1,1)"><rect fill="#C0C0C0" stroke="none" x="1463" y="311" width="539" height="415" opacity="0.2"/></g><g transform="translate(-566,-238) scale(1,1)"><rect fill="#ffffff" stroke="none" x="1456" y="304" width="539" height="415"/></g><g transform="translate(-566,-238) scale(1,1)"><path fill="none" stroke="#000000" d="M 1456 304 L 1995 304 L 1995 719 L 1456 719 L 1456 304 Z Z" stroke-miterlimit="10"/></g><g transform="translate(-566,-238) scale(1,1)"><path fill="none" stroke="#000000" d="M 1456 329 L 1995 329" stroke-miterlimit="10"/></g><g transform="translate(-566,-238) scale(1,1)"><path fill="none" stroke="#000000" d="M 1456 577 L 1995 577" stroke-miterlimit="10"/></g><g transform="translate(-566,-238) scale(1,1)"><g><path fill="none" stroke="none"/><text fill="#000000" stroke="none" font-family="Arial" font-size="13px" font-style="normal" font-weight="bold" text-decoration="none" x="1668.5" y="323.5">UWardrobeManager</text></g></g><g transform="translate(-566,-238) scale(1,1)"><g><path fill="none" stroke="none"/><text fill="#000000" stroke="none" font-family="Arial" font-size="13px" font-style="normal" font-weight="normal" text-decoration="none" x="1461" y="346.5">+documentsPath: FString</text><path fill="none" stroke="#000000" d="M 1461 346.5 L 1610 346.5" stroke-miterlimit="10"/></g></g><g transform="translate(-566,-238) scale(1,1)"><g><path fill="none" stroke="none"/><text fill="#000000" stroke="none" font-family="Arial" font-size="13px" font-style="normal" font-weight="normal" text-decoration="none" x="1461" y="361.5">+texturePath: FString</text><path fill="none" stroke="#000000" d="M 1461 361.5 L 1586 361.5" stroke-miterlimit="10"/></g></g><g transform="translate(-566,-238) scale(1,1)"><g><path fill="none" stroke="none"/><text fill="#000000" stroke="none" font-family="Arial" font-size="13px" font-style="normal" font-weight="normal" text-decoration="none" x="1461" y="376.5">+mode: EWardrobeMode</text></g></g><g transform="translate(-566,-238) scale(1,1)"><g><path fill="none" stroke="none"/><text fill="#000000" stroke="none" font-family="Arial" font-size="13px" font-style="normal" font-weight="normal" text-decoration="none" x="1461" y="391.5">+scanningCategory: FCategory</text></g></g><g transform="translate(-566,-238) scale(1,1)"><g><path fill="none" stroke="none"/><text fill="#000000" stroke="none" font-family="Arial" font-size="13px" font-style="normal" font-weight="normal" text-decoration="none" x="1461" y="406.5">+items: TArray&lt;FClothingItem&gt;</text></g></g><g transform="translate(-566,-238) scale(1,1)"><g><path fill="none" stroke="none"/><text fill="#000000" stroke="none" font-family="Arial" font-size="13px" font-style="normal" font-weight="normal" text-decoration="none" x="1461" y="421.5">+currentItemPos: int32</text></g></g><g transform="translate(-566,-238) scale(1,1)"><g><path fill="none" stroke="none"/><text fill="#000000" stroke="none" font-family="Arial" font-size="13px" font-style="normal" font-weight="normal" text-decoration="none" x="1461" y="436.5">+categories: TArray&lt;FCategories&gt;</text><path fill="none" stroke="#000000" d="M 1461 436.5 L 1662 436.5" stroke-miterlimit="10"/></g></g><g transform="translate(-566,-238) scale(1,1)"><g><path fill="none" stroke="none"/><text fill="#000000" stroke="none" font-family="Arial" font-size="13px" font-style="normal" font-weight="normal" text-decoration="none" x="1461" y="451.5">+scanInterval: float</text><path fill="none" stroke="#000000" d="M 1461 451.5 L 1573 451.5" stroke-miterlimit="10"/></g></g><g transform="translate(-566,-238) scale(1,1)"><g><path fill="none" stroke="none"/><text fill="#000000" stroke="none" font-family="Arial" font-size="13px" font-style="normal" font-weight="normal" text-decoration="none" x="1461" y="466.5">+lastAction: float</text></g></g><g transform="translate(-566,-238) scale(1,1)"><g><path fill="none" stroke="none"/><text fill="#000000" stroke="none" font-family="Arial" font-size="13px" font-style="normal" font-weight="normal" text-decoration="none" x="1461" y="481.5">+timeSinceSecondScan: float</text></g></g><g transform="translate(-566,-238) scale(1,1)"><g><path fill="none" stroke="none"/><text fill="#000000" stroke="none" font-family="Arial" font-size="13px" font-style="normal" font-weight="normal" text-decoration="none" x="1461" y="496.5">+ItemProcessed: FItemProcessedDelegate</text></g></g><g transform="translate(-566,-238) scale(1,1)"><g><path fill="none" stroke="none"/><text fill="#000000" stroke="none" font-family="Arial" font-size="13px" font-style="normal" font-weight="normal" text-decoration="none" x="1461" y="511.5">+ScanningStatusUpdate: FScanningStatusUpdateDelegate</text></g></g><g transform="translate(-566,-238) scale(1,1)"><g><path fill="none" stroke="none"/><text fill="#000000" stroke="none" font-family="Arial" font-size="13px" font-style="normal" font-weight="normal" text-decoration="none" x="1461" y="526.5">+currentClothingItem: FClothingItem</text></g></g><g transform="translate(-566,-238) scale(1,1)"><g><path fill="none" stroke="none"/><text fill="#000000" stroke="none" font-family="Arial" font-size="13px" font-style="normal" font-weight="normal" text-decoration="none" x="1461" y="541.5">+currentFilter: FCategory</text></g></g><g transform="translate(-566,-238) scale(1,1)"><g><path fill="none" stroke="none"/><text fill="#000000" stroke="none" font-family="Arial" font-size="13px" font-style="normal" font-weight="normal" text-decoration="none" x="1461" y="556.5">+database: Database</text><path fill="none" stroke="#000000" d="M 1461 556.5 L 1585 556.5" stroke-miterlimit="10"/></g></g><g transform="translate(-566,-238) scale(1,1)"><g><path fill="none" stroke="none"/><text fill="#000000" stroke="none" font-family="Arial" font-size="13px" font-style="normal" font-weight="normal" text-decoration="none" x="1461" y="571.5">+currentTime: float</text></g></g><g transform="translate(-566,-238) scale(1,1)"><g><path fill="none" stroke="none"/><text fill="#000000" stroke="none" font-family="Arial" font-size="13px" font-style="normal" font-weight="normal" text-decoration="none" x="1461" y="594.5">+StartWardrobeManager(startingMode: EWardrobeMode)</text></g></g><g transform="translate(-566,-238) scale(1,1)"><g><path fill="none" stroke="none"/><text fill="#000000" stroke="none" font-family="Arial" font-size="13px" font-style="normal" font-weight="normal" text-decoration="none" x="1461" y="609.5">+Tick(float deltaTime)</text></g></g><g transform="translate(-566,-238) scale(1,1)"><g><path fill="none" stroke="none"/><text fill="#000000" stroke="none" font-family="Arial" font-size="13px" font-style="normal" font-weight="normal" text-decoration="none" x="1461" y="624.5">+StartScanning(category: FCategory)</text></g></g><g transform="translate(-566,-238) scale(1,1)"><g><path fill="none" stroke="none"/><text fill="#000000" stroke="none" font-family="Arial" font-size="13px" font-style="normal" font-weight="normal" text-decoration="none" x="1461" y="639.5">+GetCategories(): TArray&lt;FCategory&gt;</text></g></g><g transform="translate(-566,-238) scale(1,1)"><g><path fill="none" stroke="none"/><text fill="#000000" stroke="none" font-family="Arial" font-size="13px" font-style="normal" font-weight="normal" text-decoration="none" x="1461" y="654.5">+GetCategory(id: int32): FCategory</text></g></g><g transform="translate(-566,-238) scale(1,1)"><g><path fill="none" stroke="none"/><text fill="#000000" stroke="none" font-family="Arial" font-size="13px" font-style="normal" font-weight="normal" text-decoration="none" x="1461" y="669.5">+NextClothingItem(): FClothingItem</text></g></g><g transform="translate(-566,-238) scale(1,1)"><g><path fill="none" stroke="none"/><text fill="#000000" stroke="none" font-family="Arial" font-size="13px" font-style="normal" font-weight="normal" text-decoration="none" x="1461" y="684.5">+PreviousClothingItem(): FClothingItem</text></g></g><g transform="translate(-566,-238) scale(1,1)"><g><path fill="none" stroke="none"/><text fill="#000000" stroke="none" font-family="Arial" font-size="13px" font-style="normal" font-weight="normal" text-decoration="none" x="1461" y="699.5">+FilterClothingItem(category: FCategory, recommendedItem: FClothingItem): FClothingItem</text></g></g><g transform="translate(-566,-238) scale(1,1)"><g><path fill="none" stroke="none"/><text fill="#000000" stroke="none" font-family="Arial" font-size="13px" font-style="normal" font-weight="normal" text-decoration="none" x="1461" y="714.5">+GetClothesFromDB()</text></g></g><g transform="translate(-566,-238) scale(1,1)"><rect fill="#C0C0C0" stroke="none" x="2095" y="319" width="279" height="303" opacity="0.2"/></g><g transform="translate(-566,-238) scale(1,1)"><rect fill="#ffffff" stroke="none" x="2088" y="312" width="279" height="303"/></g><g transform="translate(-566,-238) scale(1,1)"><path fill="none" stroke="#000000" d="M 2088 312 L 2367 312 L 2367 615 L 2088 615 L 2088 312 Z Z" stroke-miterlimit="10"/></g><g transform="translate(-566,-238) scale(1,1)"><path fill="none" stroke="#000000" d="M 2088 350 L 2367 350" stroke-miterlimit="10"/></g><g transform="translate(-566,-238) scale(1,1)"><g><path fill="none" stroke="none"/><text fill="#000000" stroke="none" font-family="Arial" font-size="13px" font-style="normal" font-weight="normal" text-decoration="none" x="2185" y="329.5">«enumeration»</text></g></g><g transform="translate(-566,-238) scale(1,1)"><g><path fill="none" stroke="none"/><text fill="#000000" stroke="none" font-family="Arial" font-size="13px" font-style="normal" font-weight="bold" text-decoration="none" x="2179.5" y="344.5">EWardrobeMode</text></g></g><g transform="translate(-566,-238) scale(1,1)"><g><path fill="none" stroke="none"/><text fill="#000000" stroke="none" font-family="Arial" font-size="13px" font-style="normal" font-weight="normal" text-decoration="none" x="2093" y="367.5">MM_None</text></g></g><g transform="translate(-566,-238) scale(1,1)"><g><path fill="none" stroke="none"/><text fill="#000000" stroke="none" font-family="Arial" font-size="13px" font-style="normal" font-weight="normal" text-decoration="none" x="2093" y="382.5">MM_Scanning</text></g></g><g transform="translate(-566,-238) scale(1,1)"><g><path fill="none" stroke="none"/><text fill="#000000" stroke="none" font-family="Arial" font-size="13px" font-style="normal" font-weight="normal" text-decoration="none" x="2093" y="397.5">MM_ScanningForPrint</text></g></g><g transform="translate(-566,-238) scale(1,1)"><g><path fill="none" stroke="none"/><text fill="#000000" stroke="none" font-family="Arial" font-size="13px" font-style="normal" font-weight="normal" text-decoration="none" x="2093" y="412.5">MM_Outfitting</text></g></g><g transform="translate(-566,-238) scale(1,1)"><g><path fill="none" stroke="none"/><text fill="#000000" stroke="none" font-family="Arial" font-size="13px" font-style="normal" font-weight="normal" text-decoration="none" x="2093" y="427.5">MM_ScanningForPattern</text></g></g><g transform="translate(-566,-238) scale(1,1)"><path fill="none" stroke="#000000" d="M 1758 1095 L 1793 1048" stroke-miterlimit="10"/></g><g transform="translate(-566,-238) scale(1,1)"><path fill="#FFFFFF" stroke="none" d="M 1787.6127861376451 1069.3302115976671 L 1793 1048 L 1774.1079272813724 1059.273401811081"/></g><g transform="translate(-566,-238) scale(1,1)"><path fill="none" stroke="#000000" d="M 1787.6127861376451 1069.3302115976671 L 1793 1048 L 1774.1079272813724 1059.273401811081 L 1787.6127861376451 1069.3302115976671" stroke-miterlimit="10"/></g><g transform="translate(-566,-238) scale(1,1)"><path fill="none" stroke="#000000" d="M 2043 1095 L 2011 1048" stroke-miterlimit="10"/></g><g transform="translate(-566,-238) scale(1,1)"><path fill="#FFFFFF" stroke="none" d="M 2029.3980918454508 1060.0627615597073 L 2011 1048 L 2015.4797550061057 1069.5390760035168"/></g><g transform="translate(-566,-238) scale(1,1)"><path fill="none" stroke="#000000" d="M 2029.3980918454508 1060.0627615597073 L 2011 1048 L 2015.4797550061057 1069.5390760035168 L 2029.3980918454508 1060.0627615597073" stroke-miterlimit="10"/></g><g transform="translate(-566,-238) scale(1,1)"><rect fill="#C0C0C0" stroke="none" x="1951" y="1103" width="376" height="259" opacity="0.2"/></g><g transform="translate(-566,-238) scale(1,1)"><rect fill="#ffffff" stroke="none" x="1944" y="1096" width="376" height="259"/></g><g transform="translate(-566,-238) scale(1,1)"><path fill="none" stroke="#000000" d="M 1944 1096 L 2320 1096 L 2320 1355 L 1944 1355 L 1944 1096 Z Z" stroke-miterlimit="10"/></g><g transform="translate(-566,-238) scale(1,1)"><path fill="none" stroke="#000000" d="M 1944 1121 L 2320 1121" stroke-miterlimit="10"/></g><g transform="translate(-566,-238) scale(1,1)"><path fill="none" stroke="#000000" d="M 1944 1159 L 2320 1159" stroke-miterlimit="10"/></g><g transform="translate(-566,-238) scale(1,1)"><g><path fill="none" stroke="none"/><text fill="#000000" stroke="none" font-family="Arial" font-size="13px" font-style="normal" font-weight="bold" text-decoration="none" x="2091.5" y="1115.5">FClothingItem</text></g></g><g transform="translate(-566,-238) scale(1,1)"><g><path fill="none" stroke="none"/><text fill="#000000" stroke="none" font-family="Arial" font-size="13px" font-style="normal" font-weight="normal" text-decoration="none" x="1949" y="1138.5">+category: FCategory</text></g></g><g transform="translate(-566,-238) scale(1,1)"><g><path fill="none" stroke="none"/><text fill="#000000" stroke="none" font-family="Arial" font-size="13px" font-style="normal" font-weight="normal" text-decoration="none" x="1949" y="1153.5">+texture: UTexture2D</text></g></g><g transform="translate(-566,-238) scale(1,1)"><rect fill="#C0C0C0" stroke="none" x="1455" y="1103" width="432" height="251" opacity="0.2"/></g><g transform="translate(-566,-238) scale(1,1)"><rect fill="#ffffff" stroke="none" x="1448" y="1096" width="432" height="251"/></g><g transform="translate(-566,-238) scale(1,1)"><path fill="none" stroke="#000000" d="M 1448 1096 L 1880 1096 L 1880 1347 L 1448 1347 L 1448 1096 Z Z" stroke-miterlimit="10"/></g><g transform="translate(-566,-238) scale(1,1)"><path fill="none" stroke="#000000" d="M 1448 1121 L 1880 1121" stroke-miterlimit="10"/></g><g transform="translate(-566,-238) scale(1,1)"><path fill="none" stroke="#000000" d="M 1448 1189 L 1880 1189" stroke-miterlimit="10"/></g><g transform="translate(-566,-238) scale(1,1)"><g><path fill="none" stroke="none"/><text fill="#000000" stroke="none" font-family="Arial" font-size="13px" font-style="normal" font-weight="bold" text-decoration="none" x="1634" y="1115.5">FCategory</text></g></g><g transform="translate(-566,-238) scale(1,1)"><g><path fill="none" stroke="none"/><text fill="#000000" stroke="none" font-family="Arial" font-size="13px" font-style="normal" font-weight="normal" text-decoration="none" x="1453" y="1138.5">+fullName: FString</text></g></g><g transform="translate(-566,-238) scale(1,1)"><g><path fill="none" stroke="none"/><text fill="#000000" stroke="none" font-family="Arial" font-size="13px" font-style="normal" font-weight="normal" text-decoration="none" x="1453" y="1153.5">+name: FString</text></g></g><g transform="translate(-566,-238) scale(1,1)"><g><path fill="none" stroke="none"/><text fill="#000000" stroke="none" font-family="Arial" font-size="13px" font-style="normal" font-weight="normal" text-decoration="none" x="1453" y="1168.5">+bIsTrousers: bool</text></g></g><g transform="translate(-566,-238) scale(1,1)"><g><path fill="none" stroke="none"/><text fill="#000000" stroke="none" font-family="Arial" font-size="13px" font-style="normal" font-weight="normal" text-decoration="none" x="1453" y="1183.5">+layer: int32</text></g></g><g transform="translate(-566,-238) scale(1,1)"><rect fill="#C0C0C0" stroke="none" x="1703" y="751" width="423" height="303" opacity="0.2"/></g><g transform="translate(-566,-238) scale(1,1)"><rect fill="#ffffff" stroke="none" x="1696" y="744" width="423" height="303"/></g><g transform="translate(-566,-238) scale(1,1)"><path fill="none" stroke="#000000" d="M 1696 744 L 2119 744 L 2119 1047 L 1696 1047 L 1696 744 Z Z" stroke-miterlimit="10"/></g><g transform="translate(-566,-238) scale(1,1)"><path fill="none" stroke="#000000" d="M 1696 769 L 2119 769" stroke-miterlimit="10"/></g><g transform="translate(-566,-238) scale(1,1)"><path fill="none" stroke="#000000" d="M 1696 792 L 2119 792" stroke-miterlimit="10"/></g><g transform="translate(-566,-238) scale(1,1)"><g><path fill="none" stroke="none"/><text fill="#000000" stroke="none" font-family="Arial" font-size="13px" font-style="normal" font-weight="bold" text-decoration="none" x="1872.5" y="763.5">FFromTable</text></g></g><g transform="translate(-566,-238) scale(1,1)"><g><path fill="none" stroke="none"/><text fill="#000000" stroke="none" font-family="Arial" font-size="13px" font-style="normal" font-weight="normal" text-decoration="none" x="1701" y="786.5">+id: int32 {id}</text></g></g><g transform="translate(-566,-238) scale(1,1)"><g><path fill="none" stroke="none"/><text fill="#000000" stroke="none" font-family="Arial" font-size="13px" font-style="normal" font-weight="normal" text-decoration="none" x="1701" y="809.5">+FFromTable(query: statment)</text></g></g><g transform="translate(-566,-238) scale(1,1)"><rect fill="#C0C0C0" stroke="none" x="631" y="1039" width="671" height="415" opacity="0.2"/></g><g transform="translate(-566,-238) scale(1,1)"><rect fill="#ffffff" stroke="none" x="624" y="1032" width="671" height="415"/></g><g transform="translate(-566,-238) scale(1,1)"><path fill="none" stroke="#000000" d="M 624 1032 L 1295 1032 L 1295 1447 L 624 1447 L 624 1032 Z Z" stroke-miterlimit="10"/></g><g transform="translate(-566,-238) scale(1,1)"><path fill="none" stroke="#000000" d="M 624 1057 L 1295 1057" stroke-miterlimit="10"/></g><g transform="translate(-566,-238) scale(1,1)"><path fill="none" stroke="#000000" d="M 624 1125 L 1295 1125" stroke-miterlimit="10"/></g><g transform="translate(-566,-238) scale(1,1)"><g><path fill="none" stroke="none"/><text fill="#000000" stroke="none" font-family="Arial" font-size="13px" font-style="normal" font-weight="bold" text-decoration="none" x="907.5" y="1051.5">ScanningManager</text></g></g><g transform="translate(-566,-238) scale(1,1)"><g><path fill="none" stroke="none"/><text fill="#000000" stroke="none" font-family="Arial" font-size="13px" font-style="normal" font-weight="normal" text-decoration="none" x="629" y="1074.5">+scanningProvider: IProvideScanning</text></g></g><g transform="translate(-566,-238) scale(1,1)"><g><path fill="none" stroke="none"/><text fill="#000000" stroke="none" font-family="Arial" font-size="13px" font-style="normal" font-weight="normal" text-decoration="none" x="629" y="1089.5">+latestFrame: RGBQUAD</text></g></g><g transform="translate(-566,-238) scale(1,1)"><g><path fill="none" stroke="none"/><text fill="#000000" stroke="none" font-family="Arial" font-size="13px" font-style="normal" font-weight="normal" text-decoration="none" x="629" y="1104.5">+latestCannyEdge: RGBQUAD</text></g></g><g transform="translate(-566,-238) scale(1,1)"><g><path fill="none" stroke="none"/><text fill="#000000" stroke="none" font-family="Arial" font-size="13px" font-style="normal" font-weight="normal" text-decoration="none" x="629" y="1119.5">+currentFrameRate: float</text></g></g><g transform="translate(-566,-238) scale(1,1)"><g><path fill="none" stroke="none"/><text fill="#000000" stroke="none" font-family="Arial" font-size="13px" font-style="normal" font-weight="normal" text-decoration="none" x="629" y="1142.5">+Get()</text><path fill="none" stroke="#000000" d="M 629 1142.5 L 666 1142.5" stroke-miterlimit="10"/></g></g><g transform="translate(-566,-238) scale(1,1)"><g><path fill="none" stroke="none"/><text fill="#000000" stroke="none" font-family="Arial" font-size="13px" font-style="normal" font-weight="normal" text-decoration="none" x="629" y="1157.5">+OnReceiveFrame(frame: RGBQUAD)</text></g></g><g transform="translate(-566,-238) scale(1,1)"><g><path fill="none" stroke="none"/><text fill="#000000" stroke="none" font-family="Arial" font-size="13px" font-style="normal" font-weight="normal" text-decoration="none" x="629" y="1172.5">+OnReceiveFrameAndCanny(frame: RGBQUAD, canny: RGBQUAD)</text></g></g><g transform="translate(-566,-238) scale(1,1)"><rect fill="#C0C0C0" stroke="none" x="647" y="533" width="339" height="70" opacity="0.2"/></g><g transform="translate(-566,-238) scale(1,1)"><rect fill="#ffffff" stroke="none" x="640" y="526" width="339" height="70"/></g><g transform="translate(-566,-238) scale(1,1)"><path fill="none" stroke="#000000" d="M 640 526 L 979 526 L 979 596 L 640 596 L 640 526 Z Z" stroke-miterlimit="10"/></g><g transform="translate(-566,-238) scale(1,1)"><path fill="none" stroke="#000000" d="M 640 551 L 979 551" stroke-miterlimit="10"/></g><g transform="translate(-566,-238) scale(1,1)"><path fill="none" stroke="#000000" d="M 640 574 L 979 574" stroke-miterlimit="10"/></g><g transform="translate(-566,-238) scale(1,1)"><g><path fill="none" stroke="none"/><text fill="#000000" stroke="none" font-family="Arial" font-size="13px" font-style="normal" font-weight="bold" text-decoration="none" x="747" y="545.5">IOSScanningProvider</text></g></g><g transform="translate(-566,-238) scale(1,1)"><g><path fill="none" stroke="none"/><text fill="#000000" stroke="none" font-family="Arial" font-size="13px" font-style="normal" font-weight="normal" text-decoration="none" x="645" y="568.5">+scanningBridge: IOSScanningBridge</text></g></g><g transform="translate(-566,-238) scale(1,1)"><g><path fill="none" stroke="none"/><text fill="#000000" stroke="none" font-family="Arial" font-size="13px" font-style="normal" font-weight="normal" text-decoration="none" x="645" y="591.5">+bridgeCallback(frame: RGBQUAD, canny: RGBQUAD)</text></g></g><g transform="translate(-566,-238) scale(1,1)"><path fill="none" stroke="#000000" d="M 803 525 L 784 343" stroke-miterlimit="10"/></g><g transform="translate(-566,-238) scale(1,1)"><rect fill="#C0C0C0" stroke="none" x="639" y="647" width="344" height="95" opacity="0.2"/></g><g transform="translate(-566,-238) scale(1,1)"><rect fill="#ffffff" stroke="none" x="632" y="640" width="344" height="95"/></g><g transform="translate(-566,-238) scale(1,1)"><path fill="none" stroke="#000000" d="M 632 640 L 976 640 L 976 735 L 632 735 L 632 640 Z Z" stroke-miterlimit="10"/></g><g transform="translate(-566,-238) scale(1,1)"><path fill="none" stroke="#000000" d="M 632 665 L 976 665" stroke-miterlimit="10"/></g><g transform="translate(-566,-238) scale(1,1)"><path fill="none" stroke="#000000" d="M 632 703 L 976 703" stroke-miterlimit="10"/></g><g transform="translate(-566,-238) scale(1,1)"><g><path fill="none" stroke="none"/><text fill="#000000" stroke="none" font-family="Arial" font-size="13px" font-style="normal" font-weight="bold" text-decoration="none" x="747" y="659.5">IOSScanningBridge</text></g></g><g transform="translate(-566,-238) scale(1,1)"><g><path fill="none" stroke="none"/><text fill="#000000" stroke="none" font-family="Arial" font-size="13px" font-style="normal" font-weight="normal" text-decoration="none" x="637" y="682.5">+scanningProvider: IOSScanningProvider</text></g></g><g transform="translate(-566,-238) scale(1,1)"><g><path fill="none" stroke="none"/><text fill="#000000" stroke="none" font-family="Arial" font-size="13px" font-style="normal" font-weight="normal" text-decoration="none" x="637" y="697.5">+captureSession: AVCaptureSession</text></g></g><g transform="translate(-566,-238) scale(1,1)"><g><path fill="none" stroke="none"/><text fill="#000000" stroke="none" font-family="Arial" font-size="13px" font-style="normal" font-weight="normal" text-decoration="none" x="637" y="720.5">+didOutputSampleBuffer(sampleBuffer: CMSampleBuffer)</text></g></g><g transform="translate(-566,-238) scale(1,1)"><path fill="none" stroke="#000000" d="M 806 639 L 808 597" stroke-miterlimit="10" stroke-dasharray="3"/></g><g transform="translate(-566,-238) scale(1,1)"><path fill="none" stroke="#000000" d="M 811.7213640136061 607.3513984503659 L 808 597 L 803.3118576902668 606.9509457683021" stroke-miterlimit="10"/></g><g transform="translate(-566,-238) scale(1,1)"><g><path fill="none" stroke="none"/><text fill="#000000" stroke="none" font-family="Arial" font-size="13px" font-style="normal" font-weight="normal" text-decoration="none" x="692.5" y="623.5">+Used for Handling IOS delegates</text></g></g></g></svg>