<?xml version="1.0" encoding="UTF-8" standalone="no"?>
<svg
   xmlns:dc="http://purl.org/dc/elements/1.1/"
   xmlns:cc="http://creativecommons.org/ns#"
   xmlns:rdf="http://www.w3.org/1999/02/22-rdf-syntax-ns#"
   xmlns:svg="http://www.w3.org/2000/svg"
   xmlns="http://www.w3.org/2000/svg"
   xmlns:sodipodi="http://sodipodi.sourceforge.net/DTD/sodipodi-0.dtd"
   xmlns:inkscape="http://www.inkscape.org/namespaces/inkscape"
   version="1.1"
   id="svg2"
   height="618.40619"
   width="618.40619"
   inkscape:version="0.91 r13725"
   sodipodi:docname="mirror_anim.svg">
  <sodipodi:namedview
     pagecolor="#ffffff"
     bordercolor="#666666"
     borderopacity="1"
     objecttolerance="10"
     gridtolerance="10"
     guidetolerance="10"
     inkscape:pageopacity="0"
     inkscape:pageshadow="2"
     inkscape:window-width="1920"
     inkscape:window-height="1017"
     id="namedview12"
     showgrid="false"
     inkscape:zoom="0.84852812"
     inkscape:cx="405.43754"
     inkscape:cy="464.71229"
     inkscape:window-x="3832"
     inkscape:window-y="-8"
     inkscape:window-maximized="1"
     inkscape:current-layer="svg2"
     fit-margin-top="0"
     fit-margin-left="0"
     fit-margin-right="0"
     fit-margin-bottom="0" />
  <defs
     id="defs4" />
  <metadata
     id="metadata7">
    <rdf:RDF>
      <cc:Work
         rdf:about="">
        <dc:format>image/svg+xml</dc:format>
        <dc:type
           rdf:resource="http://purl.org/dc/dcmitype/StillImage" />
        <dc:title></dc:title>
      </cc:Work>
    </rdf:RDF>
  </metadata>
  <g
     transform="translate(-650.7969,-203.1591)"
     id="layer1">
    <g
       id="layer2">
      <g
         transform="matrix(3.4355899,0,0,3.4355899,-598.11038,-1045.4214)"
         id="g6320">
        <g
           transform="translate(-54.427401,376.55421)"
           id="g3347">
          <path
             id="path6508"
             d="M 523.96612,155.39723 A 102.17693,102.17693 0 0 1 421.78918,257.57417 102.17693,102.17693 0 0 1 319.61225,155.39723 102.17693,102.17693 0 0 1 421.78918,53.220299 102.17693,102.17693 0 0 1 523.96612,155.39723 Z"
             style="fill:#000000;fill-opacity:0;stroke:#00bce5;stroke-width:6.44855833;stroke-miterlimit:4;stroke-dasharray:none;stroke-opacity:1"
             transform="matrix(0.85388012,0,0,0.85388012,147.79048,-55.819455)"
             inkscape:connector-curvature="0" />
        </g>
      </g>
    </g>
    <g
       id="layer3">
      <path
         d="m 891.29087,250.19575 c 4.066,-1.06623 8.1773,-2.04232 12.3323,-2.92547 4.1738,-0.88717 8.3456,-1.67066 12.5125,-2.35266 m -51.8723,13.89628 c 3.9323,-1.48538 7.9191,-2.8859 11.9589,-4.19854 4.0582,-1.31857 8.1253,-2.53385 12.1982,-3.64766 m -50.1357,19.24232 c 3.7555,-1.8883 7.5741,-3.69786 11.4546,-5.42558 3.8982,-1.7356 7.8159,-3.36932 11.75,-4.90276 m -47.8496,24.3775 c 3.5375,-2.27051 7.146,-4.46929 10.8247,-6.59317 3.6954,-2.13354 7.4209,-4.16785 11.1731,-6.10412 m -66.22474,48.1118 c 2.98814,-2.9564 6.06062,-5.85737 9.21735,-8.69971 3.17104,-2.85521 6.39218,-5.61962 9.65988,-8.29375 m -37.97464,37.97072 c 2.66279,-3.25254 5.41517,-6.4588 8.25747,-9.61549 2.85525,-3.17105 5.76977,-6.25704 8.74007,-9.25806 m -33.79758,41.73218 c 2.3082,-3.51306 4.71037,-6.98947 7.20715,-10.42598 2.50812,-3.45212 5.08412,-6.82587 7.72444,-10.12091 m -29.25023,45.03633 c 1.92832,-3.73508 3.95395,-7.44352 6.07783,-11.12221 2.13354,-3.69539 4.34279,-7.3199 6.62423,-10.87289 m -33.2965,74.7784 c 1.10966,-4.05437 2.31998,-8.10294 3.63262,-12.14282 1.31861,-4.05822 2.726,-8.06285 4.21884,-12.01254 m -13.90164,51.87092 c 0.67977,-4.14817 1.4603,-8.30108 2.34345,-12.45601 0.88718,-4.17383 1.86824,-8.30365 2.94008,-12.38774 m -8.40349,53.03987 c 0.24255,-4.19647 0.5846,-8.40823 1.02862,-12.6327 0.446,-4.2437 0.99003,-8.45344 1.62908,-12.6272 m -2.81326,53.62774 c -0.19755,-4.19884 -0.29753,-8.42328 -0.29753,-12.67104 0,-4.26707 0.10101,-8.51061 0.30028,-12.72831 m 8.55358,81.40826 c -1.0662,-4.06602 -2.04228,-8.17736 -2.92547,-12.33229 -0.88717,-4.17383 -1.67066,-8.34563 -2.35266,-12.51259 m 13.89631,51.87236 c -1.48538,-3.93231 -2.88589,-7.91907 -4.19853,-11.95895 -1.31858,-4.05822 -2.53385,-8.12527 -3.6477,-12.19813 m 19.24232,50.13563 c -1.88827,-3.75551 -3.69786,-7.57403 -5.42555,-11.45456 -1.73559,-3.89816 -3.36932,-7.8159 -4.90276,-11.75003 m 24.37751,47.84963 c -2.27052,-3.53753 -4.46933,-7.14603 -6.59321,-10.82469 -2.13354,-3.69539 -4.16782,-7.42091 -6.10412,-11.17315 m 48.1118,66.22477 c -2.95636,-2.98814 -5.85737,-6.06062 -8.69967,-9.21734 -2.85522,-3.17105 -5.61963,-6.39219 -8.29376,-9.65989 m 37.97073,37.97464 c -3.25254,-2.66278 -6.45881,-5.41517 -9.6155,-8.25747 -3.17105,-2.85525 -6.25703,-5.76976 -9.25805,-8.74007 m 41.73228,33.79758 c -3.51303,-2.3082 -6.98943,-4.7104 -10.42595,-7.20715 -3.45215,-2.50812 -6.82586,-5.08412 -10.12094,-7.72444 m 45.03626,29.25023 c -3.7351,-1.92832 -7.4436,-3.95395 -11.1222,-6.07783 -3.6954,-2.13353 -7.3199,-4.34279 -10.8729,-6.62419 m 74.7785,33.29646 c -4.0544,-1.10966 -8.103,-2.31998 -12.1428,-3.63262 -4.0583,-1.31858 -8.0629,-2.72597 -12.0126,-4.21883 m 51.871,13.90163 c -4.1481,-0.67977 -8.301,-1.4603 -12.456,-2.34345 -4.1738,-0.88717 -8.3036,-1.86824 -12.3877,-2.94008 m 53.0396,8.40349 c -4.1965,-0.24255 -8.4082,-0.5846 -12.6328,-1.02861 -4.2436,-0.44601 -8.4534,-0.99004 -12.6271,-1.62909 m 53.6279,2.81326 c -4.1988,0.19755 -8.4233,0.29753 -12.671,0.29753 -4.2671,0 -8.5106,-0.10101 -12.7283,-0.30027 m 81.40823,-8.55359 c -4.0661,1.0662 -8.1774,2.04228 -12.3323,2.92547 -4.1739,0.88717 -8.3457,1.67066 -12.5126,2.35266 m 51.8724,-13.89631 c -3.9323,1.48538 -7.9191,2.8859 -11.9589,4.19853 -4.0583,1.31858 -8.1253,2.53385 -12.1982,3.64771 m 50.1353,-19.24233 c -3.7555,1.88827 -7.574,3.69786 -11.4546,5.42559 -3.8981,1.73555 -7.8159,3.36928 -11.75,4.90275 m 47.8498,-24.37753 c -3.5375,2.27051 -7.146,4.46929 -10.8247,6.59317 -3.6954,2.13353 -7.4209,4.16785 -11.1731,6.10411 m 66.2247,-48.11176 c -2.9882,2.95636 -6.0607,5.85737 -9.2174,8.69967 -3.171,2.85522 -6.3922,5.61963 -9.6599,8.29376 m 37.9746,-37.97073 c -2.6627,3.25254 -5.4151,6.45881 -8.2574,9.6155 -2.8553,3.17105 -5.7698,6.25703 -8.7401,9.25805 m 33.7978,-41.73214 c -2.3082,3.51303 -4.7104,6.98943 -7.2072,10.42595 -2.5081,3.45215 -5.0841,6.82586 -7.7244,10.12094 m 29.2499,-45.03636 c -1.9284,3.73507 -3.954,7.44355 -6.0779,11.12221 -2.1335,3.69539 -4.3428,7.3199 -6.6242,10.87288 m 33.2967,-74.77839 c -1.1097,4.05437 -2.32,8.10297 -3.6328,12.14281 -1.3185,4.05823 -2.7258,8.06285 -4.2185,12.01258 m 13.9014,-51.87095 c -0.6799,4.14816 -1.4605,8.30107 -2.3434,12.45601 -0.8871,4.17382 -1.8683,8.30364 -2.9402,12.38774 m 8.4038,-53.03988 c -0.2439,4.19647 -0.5847,8.40823 -1.0286,12.63273 -0.4463,4.24368 -0.9901,8.45341 -1.6292,12.62721 m 2.8131,-53.62778 c 0.1993,4.19884 0.2989,8.42328 0.2989,12.67104 0,4.26708 -0.1,8.51061 -0.2989,12.72832 m -8.5536,-81.40827 c 1.0664,4.06602 2.0425,8.17736 2.9258,12.33229 0.887,4.17383 1.6703,8.34564 2.3523,12.51259 m -13.8963,-51.87232 c 1.4856,3.93227 2.8859,7.91907 4.1987,11.95891 1.3185,4.05822 2.5337,8.12528 3.6475,12.19813 m -19.2421,-50.1356 c 1.8882,3.75548 3.6978,7.57404 5.4256,11.45454 1.7356,3.89815 3.3692,7.81593 4.9025,11.75002 m -24.3773,-47.84962 c 2.2705,3.53752 4.4693,7.14602 6.5932,10.82468 2.1335,3.69539 4.1678,7.42091 6.1041,11.17319 m -48.1118,-66.2248 c 2.9564,2.98817 5.8574,6.06062 8.6997,9.21734 2.8552,3.17105 5.6196,6.39219 8.2937,9.65988 m -37.9707,-37.97464 c 3.2525,2.66279 6.4588,5.41518 9.6155,8.25748 3.1711,2.85525 6.257,5.7698 9.2581,8.74007 m -41.7322,-33.79758 c 3.513,2.3082 6.9894,4.7104 10.426,7.20718 3.4521,2.50812 6.8258,5.08412 10.1209,7.72441 m -45.0364,-29.25024 c 3.7351,1.92833 7.4436,3.95399 11.1223,6.07787 3.6953,2.13354 7.3199,4.34276 10.8729,6.6242 m -74.7785,-33.29647 c 4.0544,1.10963 8.103,2.31995 12.1429,3.63259 4.0582,1.31861 8.0628,2.726 12.0125,4.21883 m -51.8709,-13.90163 c 4.1481,0.67976 8.3011,1.4603 12.456,2.34345 4.1738,0.88717 8.3036,1.86824 12.3877,2.94007 m -53.03974,-8.40345 c 4.19637,0.24255 8.40817,0.58457 12.63267,1.02858 4.2437,0.44601 8.4534,0.99004 12.62717,1.62909 m -53.62774,-2.81327 c 4.1989,-0.19754 8.4233,-0.29752 12.6711,-0.29752 4.267,0 8.5106,0.10101 12.7283,0.30027"
         style="fill:none;stroke:#00bce5;stroke-width:19.68186188;stroke-miterlimit:4;stroke-opacity:1"
         id="inner_pieces"
         inkscape:connector-curvature="0">
        <animateTransform
           attributeType="xml"
           attributeName="transform"
           type="rotate"
           from="0 960 512"
           to="360 960 512"
           dur="60s"
           repeatCount="indefinite" />
      </path>
    </g>
  </g>
  <path
     id="path4140"
     d="M 408.8472,93.066408 A 238,238 0 0 0 93.066429,209.55901 238,238 0 0 0 209.55903,525.33975 238,238 0 0 0 525.3398,408.84715 238,238 0 0 0 408.8472,93.066408 Z m -8.9306,20.055112 c 28.8679,13.30877 46.6327,29.7603 46.6327,29.7603 l -5.5932,16.09832 a 199.91999,199.91999 0 0 1 62.076,101.73941 l 3.84,-0.29555 c 0,0 1.6534,6.62583 3.0409,14.71249 1.3875,8.08662 1.7753,13.36322 1.7753,13.36322 l -3.8412,1.05259 a 199.91999,199.91999 0 0 1 -17.0892,103.35179 199.91999,199.91999 0 0 1 -22.2324,36.84601 l 6.7809,11.54738 c 0,0 -14.9116,19.97615 -40.7121,38.54532 -25.8005,18.56905 -48.8689,25.92755 -48.8689,25.92755 l -7.851,-8.92445 a 199.91999,199.91999 0 0 1 -152.37231,-6.08802 199.91999,199.91999 0 0 1 -86.98126,-77.73066 l -3.19996,1.27858 c 0,0 -3.55813,-5.82916 -7.29708,-13.13256 -3.73885,-7.30339 -5.68428,-12.22523 -5.68428,-12.22523 l 3.04786,-1.95679 a 199.91999,199.91999 0 0 1 -10.85211,-32.70317 l -13.00316,-2.03906 c 0,0 -6.000361,-24.1951 -4.011741,-55.92089 1.9886,-31.7257 10.916231,-54.23316 10.916231,-54.23316 l 12.75054,-0.4463 a 199.91999,199.91999 0 0 1 6.46117,-16.14657 199.91999,199.91999 0 0 1 55.33782,-70.93154 l -1.97702,-3.58135 c 0,0 5.34574,-4.25161 12.13115,-8.86436 6.78541,-4.61268 11.42919,-7.15078 11.42919,-7.15078 l 2.20531,2.64648 A 199.91999,199.91999 0 0 1 337.74501,111.4793 l 8.57268,-14.806622 c 0,0 24.73101,3.14008 53.59891,16.448842 z"
     style="fill:#0094b6;fill-opacity:1;stroke:none;stroke-width:37.52526474;stroke-miterlimit:4;stroke-dasharray:none;stroke-opacity:1"
     inkscape:connector-curvature="0">
    <animateTransform
       repeatCount="indefinite"
       dur="36s"
       to="360 309 309"
       from="0 309 309"
       type="rotate"
       attributeName="transform"
       attributeType="xml" />
  </path>
  <path
     style="fill:#00bce5;fill-opacity:1;stroke:none;stroke-width:37.52526474;stroke-miterlimit:4;stroke-dasharray:none;stroke-opacity:1"
     d="M 309.2031,59.203078 A 250,250 0 0 0 59.203099,309.20308 a 250,250 0 0 0 250.000001,250 250,250 0 0 0 250,-250 250,250 0 0 0 -250,-250.000002 z m 0.30078,23.05859 c 33.39076,0 57.57222,7.88086 57.57222,7.88086 l 1.7442,17.816412 a 209.99999,209.99999 0 0 1 103.959,69.75195 l 3.5332,-1.9707 c 0,0 4.4911,5.59339 9.3711,12.69727 4.8799,7.10383 7.5703,11.96679 7.5703,11.96679 l -3.2012,2.69336 a 209.99999,209.99999 0 0 1 29.1504,106.10547 209.99999,209.99999 0 0 1 -5.0039,44.92578 l 11.5469,8.0332 c 0,0 -5.4394,25.61361 -21.8848,54.67383 -16.4454,29.06011 -35.2148,46.22461 -35.2148,46.22461 l -11.4141,-5.06054 A 209.99999,209.99999 0 0 1 309.2031,519.20308 209.99999,209.99999 0 0 1 192.0449,483.3066 l -2.49024,2.62695 c 0,0 -5.95774,-3.99578 -12.73633,-9.31836 -6.77849,-5.3226 -10.79882,-9.16211 -10.79882,-9.16211 l 2.04687,-3.20703 a 209.99999,209.99999 0 0 1 -24.73437,-26.42383 l -13.30079,3.77344 c 0,0 -16.36448,-20.44148 -28.41992,-51.58008 C 89.555899,358.87707 88.173799,333.48042 88.173799,333.48042 l 11.966801,-6.0332 a 209.99999,209.99999 0 0 1 -0.937501,-18.24414 209.99999,209.99999 0 0 1 21.593751,-92 l -3.46094,-2.54688 c 0,0 3.22966,-6.40668 7.67383,-13.79101 4.4442,-7.38425 7.75781,-11.84766 7.75781,-11.84766 l 3.26758,1.55469 a 209.99999,209.99999 0 0 1 113.43945,-82.53516 l 1.66602,-17.894532 c 0,0 24.97252,-7.88086 58.36328,-7.88086 z"
     id="circle4143"
     inkscape:connector-curvature="0">
    <animateTransform
       attributeType="xml"
       attributeName="transform"
       type="rotate"
       from="0 309 309"
       to="-360 309 309"
       dur="42s"
       repeatCount="indefinite" />
  </path>
  <path
     id="path4152"
     style="fill:none;fill-opacity:1;stroke:#00bce5;stroke-width:10;stroke-miterlimit:4;stroke-dasharray:none;stroke-opacity:1"
     d="m 369.7137,372.27854 a 87.407349,87.407349 0 0 1 -60.5106,24.33189 87.407349,87.407349 0 0 1 -60.51527,-24.33639 m -21.57397,-33.04761 a 87.407349,87.407349 0 0 1 -5.31811,-30.02335 87.407349,87.407349 0 0 1 87.40735,-87.40735 87.407349,87.407349 0 0 1 87.4073,87.40735 l 0,0 a 87.407349,87.407349 0 0 1 -5.3234,30.03796"
     inkscape:connector-curvature="0">
    <animateTransform
       attributeType="xml"
       attributeName="transform"
       type="rotate"
       from="0 309 309"
       to="-360 309 309"
       dur="2s"
       repeatCount="indefinite" />
  </path>
</svg>
